HIERARCHY
ROOT Hips
{
	OFFSET 0.00000 0.00000 0.00000
	CHANNELS 6 Xposition Yposition Zposition Zrotation Yrotation Xrotation 
	JOINT LHipJoint
	{
		OFFSET 0 0 0
		CHANNELS 3 Zrotation Yrotation Xrotation
		JOINT LeftUpLeg
		{
			OFFSET 1.40252 -1.71424 0.59123
			CHANNELS 3 Zrotation Yrotation Xrotation
			JOINT LeftLeg
			{
				OFFSET 2.50071 -6.87065 0.00000
				CHANNELS 3 Zrotation Yrotation Xrotation
				JOINT LeftFoot
				{
					OFFSET 2.50834 -6.89162 0.00000
					CHANNELS 3 Zrotation Yrotation Xrotation
					JOINT LeftToeBase
					{
						OFFSET 0.21528 -0.59149 1.64448
						CHANNELS 3 Zrotation Yrotation Xrotation
						End Site
						{
							OFFSET 0.00000 -0.00000 0.87921
						}
					}
				}
			}
		}
	}
	JOINT RHipJoint
	{
		OFFSET 0 0 0
		CHANNELS 3 Zrotation Yrotation Xrotation
		JOINT RightUpLeg
		{
			OFFSET -1.53651 -1.71424 0.59123
			CHANNELS 3 Zrotation Yrotation Xrotation
			JOINT RightLeg
			{
				OFFSET -2.45783 -6.75285 0.00000
				CHANNELS 3 Zrotation Yrotation Xrotation
				JOINT RightFoot
				{
					OFFSET -2.51921 -6.92147 0.00000
					CHANNELS 3 Zrotation Yrotation Xrotation
					JOINT RightToeBase
					{
						OFFSET -0.21777 -0.59831 1.59676
						CHANNELS 3 Zrotation Yrotation Xrotation
						End Site
						{
							OFFSET -0.00000 -0.00000 0.85779
						}
					}
				}
			}
		}
	}
	JOINT LowerBack
	{
		OFFSET 0 0 0
		CHANNELS 3 Zrotation Yrotation Xrotation
		JOINT Spine
		{
			OFFSET 0.02212 2.07622 0.03776
			CHANNELS 3 Zrotation Yrotation Xrotation
			JOINT Spine1
			{
				OFFSET -0.00949 2.08009 -0.00123
				CHANNELS 3 Zrotation Yrotation Xrotation
				JOINT Neck
				{
					OFFSET 0 0 0
					CHANNELS 3 Zrotation Yrotation Xrotation
					JOINT Neck1
					{
						OFFSET 0.00288 1.67184 0.11155
						CHANNELS 3 Zrotation Yrotation Xrotation
						JOINT Head
						{
							OFFSET -0.02412 1.66997 -0.22040
							CHANNELS 3 Zrotation Yrotation Xrotation
							End Site
							{
								OFFSET -0.01026 1.69043 -0.08683
							}
						}
					}
				}
				JOINT LeftShoulder
				{
					OFFSET 0 0 0
					CHANNELS 3 Zrotation Yrotation Xrotation
					JOINT LeftArm
					{
						OFFSET 3.97941 0.74048 0.81462
						CHANNELS 3 Zrotation Yrotation Xrotation
						JOINT LeftForeArm
						{
							OFFSET 5.01834 -0.00000 -0.00000
							CHANNELS 3 Zrotation Yrotation Xrotation
							JOINT LeftHand
							{
								OFFSET 3.48690 -0.00000 0.00000
								CHANNELS 3 Zrotation Yrotation Xrotation
								JOINT LeftFingerBase
								{
									OFFSET 0 0 0
									CHANNELS 3 Zrotation Yrotation Xrotation
									JOINT LeftHandIndex1
									{
										OFFSET 0.76799 -0.00000 0.00000
										CHANNELS 3 Zrotation Yrotation Xrotation
										End Site
										{
											OFFSET 0.61917 -0.00000 0.00000
										}
									}
								}
								JOINT LThumb
								{
									OFFSET 0 0 0
									CHANNELS 3 Zrotation Yrotation Xrotation
									End Site
									{
										OFFSET 0.62863 -0.00000 0.62863
									}
								}
							}
						}
					}
				}
				JOINT RightShoulder
				{
					OFFSET 0 0 0
					CHANNELS 3 Zrotation Yrotation Xrotation
					JOINT RightArm
					{
						OFFSET -3.88702 1.02123 0.44091
						CHANNELS 3 Zrotation Yrotation Xrotation
						JOINT RightForeArm
						{
							OFFSET -4.70164 -0.00000 0.00000
							CHANNELS 3 Zrotation Yrotation Xrotation
							JOINT RightHand
							{
								OFFSET -3.49911 -0.00000 0.00000
								CHANNELS 3 Zrotation Yrotation Xrotation
								JOINT RightFingerBase
								{
									OFFSET 0 0 0
									CHANNELS 3 Zrotation Yrotation Xrotation
									JOINT RightHandIndex1
									{
										OFFSET -0.73933 -0.00000 0.00000
										CHANNELS 3 Zrotation Yrotation Xrotation
										End Site
										{
											OFFSET -0.59607 -0.00000 0.00000
										}
									}
								}
								JOINT RThumb
								{
									OFFSET 0 0 0
									CHANNELS 3 Zrotation Yrotation Xrotation
									End Site
									{
										OFFSET -0.60517 -0.00000 0.60517
									}
								}
							}
						}
					}
				}
			}
		}
	}
}
MOTION
Frames: 8
Frame Time: .0083333
-11.305 17.6055 -0.2938 0 0 0 0 0 0 -21 0 0 0 0 0 0 0 0 0 0 0 0 0 0 21 0 0 0 0 0 0 0 0 0 0 0 0 0 0 0 0 0 0 0 0 0 0 -16 0 0 21 0 0 11 0 0 0 -8 0 0 0 0 0 0 0 0 0 0 0 0 0 0 0 0 0 0 0 0 8 0 0 0 0 0 0 0 0 0 0 0 0 0 0 0 0 0
-11.3050 17.6055 -0.2938 -48.4969 84.6373 -36.6739 0.0000 0.0000 0.0000 -16.4291 -0.8552 -11.0933 0.3241 3.6591 10.1196 1.3829 0.8196 -22.5422 0.5874 4.9073 13.6443 0.0000 0.0000 0.0000 21.7979 9.3453 -13.6043 -0.5491 -4.7471 13.1887 -0.4449 -5.7475 -16.0156 -0.0075 -0.5610 1.5415 10.4040 1.3765 -11.2584 -3.0670 0.8345 -2.5269 -9.0789 0.5626 3.8267 -2.7742 -7.8824 -16.6006 9.4067 50.1902 9.3049 -179.7420 66.2460 35.4378 -0.0000 -0.0000 0.0000 -79.8246 5.2700 73.2938 129.7545 -53.0940 -93.6297 -0.0000 0.0000 -38.2767 20.9274 46.2498 15.4422 -7.1250 0.0000 -0.0000 -36.2402 75.7936 -26.9639 -0.0000 -0.0000 0.0000 91.4526 -12.3421 71.1453 -128.0161 53.7650 -92.2335 0.0000 -0.0000 -13.6901 -23.3863 3.5164 -1.5194 7.1250 -0.0000 -0.0000 2.4534 -26.1484 1.1221
-11.2851 17.6051 -0.2685 -48.2831 84.4828 -36.4214 0.0000 0.0000 0.0000 -16.2336 -0.9310 -11.0230 0.3240 3.6587 10.1184 1.3746 0.9964 -22.5423 0.5961 4.9425 13.7448 0.0000 0.0000 0.0000 22.0143 9.2557 -13.5029 -0.5330 -4.6782 12.9929 -0.4464 -5.6809 -15.9802 -0.0030 -0.3561 0.9783 14.4772 1.9146 -11.2632 -5.8797 1.2416 -2.6476 -14.7180 0.8443 3.8995 1.1219 -8.5343 -16.6499 10.3884 49.1143 9.5257 -179.9860 63.5530 35.3230 0.0000 0.0000 0.0000 -74.7853 5.1507 70.9517 129.0230 -53.3820 -93.0436 -0.0000 0.0000 -32.3338 1.6357 47.7742 1.2114 -7.1250 0.0000 -0.0000 -58.0182 69.7452 -38.4628 0.0000 0.0000 0.0000 96.7939 -12.4033 71.2540 -126.9224 54.1638 -91.3490 0.0000 -0.0000 -13.0131 -23.7500 3.4474 -1.5156 7.1250 -0.0000 -0.0000 2.1773 -26.2133 0.9923
-11.2661 17.6042 -0.2449 -48.6030 84.3765 -36.7115 0.0000 0.0000 0.0000 -16.0342 -1.1062 -10.9484 0.3295 3.6890 10.2034 1.3800 1.2252 -22.6747 0.5950 4.9384 13.7329 0.0000 0.0000 0.0000 22.2405 9.2903 -13.3261 -0.5176 -4.6109 12.8021 -0.4505 -5.7043 -16.0513 -0.0007 -0.1759 0.4833 5.8945 0.8906 -13.0493 0.6856 0.3712 -1.4881 -2.5360 0.3425 5.7824 -6.2729 -6.9638 -17.8110 8.4236 52.5252 9.3576 179.1320 66.8717 34.7412 0.0000 0.0000 0.0000 -86.4985 3.3955 70.4326 126.2180 -54.4115 -90.7770 -0.0000 0.0000 -28.7517 -6.0247 46.8376 -4.4021 -7.1250 0.0000 -0.0000 -62.0875 66.7731 -38.2108 0.0000 0.0000 0.0000 85.3721 -10.9827 70.8610 -128.5332 53.5702 -92.6500 0.0000 -0.0000 -14.2746 -23.6763 3.1794 -1.3931 7.1250 -0.0000 -0.0000 2.2338 -26.5075 1.0027
-11.2487 17.6037 -0.2236 -48.9364 84.2526 -37.0578 0.0000 0.0000 0.0000 -15.8205 -1.1360 -10.8827 0.3359 3.7244 10.3026 1.3885 1.3238 -22.7824 0.6062 4.9835 13.8615 0.0000 0.0000 0.0000 22.4879 9.3089 -13.1378 -0.5067 -4.5632 12.6667 -0.4543 -5.6951 -16.0916 -0.0002 -0.0884 0.2428 6.0398 0.9216 -13.0157 0.7260 0.3969 -1.5550 -2.5710 0.3554 5.6955 -5.7897 -7.0112 -17.8895 8.4139 52.6716 9.4403 178.8500 65.6406 34.4525 -0.0000 0.0000 0.0000 -86.3321 3.5867 71.0173 126.6475 -54.2613 -91.1260 -0.0000 0.0000 -30.6518 -0.4665 47.5479 -0.3442 -7.1250 0.0000 -0.0000 -59.1760 68.9265 -38.4592 -0.0000 0.0000 0.0000 85.5777 -11.1181 70.7794 -128.3358 53.6451 -92.4911 0.0000 -0.0000 -14.1879 -23.6245 3.3074 -1.4455 7.1250 -0.0000 -0.0000 2.2729 -26.3694 1.0276
-11.2290 17.6032 -0.2013 -48.9646 84.0703 -37.1835 0.0000 0.0000 0.0000 -15.5830 -0.9954 -10.7237 0.3354 3.7217 10.2951 1.3912 1.4215 -22.8431 0.6236 5.0536 14.0614 0.0000 0.0000 0.0000 22.7742 9.3242 -12.8830 -0.5003 -4.5346 12.5857 -0.4608 -5.6313 -16.1221 -0.0002 -0.1015 0.2789 6.1224 1.0888 -13.0521 0.7299 0.6038 -1.5459 -2.5758 0.4604 5.7447 -5.1887 -7.1647 -17.8786 8.5306 52.7203 9.5827 178.4930 64.4826 34.1854 0.0000 0.0000 0.0000 -85.9772 3.6314 72.2502 127.1945 -54.0662 -91.5695 -0.0000 0.0000 -33.4336 7.5219 47.6064 5.5697 -7.1250 0.0000 -0.0000 -52.7994 71.6836 -36.3712 0.0000 0.0000 0.0000 86.0679 -11.1524 70.3272 -128.0004 53.7708 -92.2208 0.0000 -0.0000 -14.0632 -23.6134 3.5624 -1.5560 7.1250 -0.0000 -0.0000 2.2810 -26.0918 1.0461
-11.2050 17.6033 -0.1793 -49.1849 83.8685 -37.6279 0.0000 0.0000 0.0000 -15.3187 -0.7952 -10.3897 0.3303 3.6937 10.2165 1.3879 1.5891 -22.8848 0.5985 4.9526 13.7735 0.0000 0.0000 0.0000 23.1175 9.3507 -12.4086 -0.4884 -4.4810 12.4341 -0.4657 -5.6345 -16.1854 -0.0001 -0.0736 0.2022 6.2698 1.4185 -13.0707 0.6014 1.0218 -1.4951 -2.7184 0.6730 5.8519 -4.4534 -7.4243 -17.7711 8.8859 52.6834 9.8497 177.9040 63.5566 33.8953 0.0000 -0.0000 0.0000 -85.3567 3.5003 73.3078 127.1771 -54.0725 -91.5554 -0.0000 0.0000 -34.1297 8.9091 46.9962 6.5398 -7.1250 0.0000 -0.0000 -50.0614 71.8224 -34.3504 0.0000 -0.0000 0.0000 86.9510 -11.2182 69.4303 -127.6342 53.9062 -91.9251 0.0000 -0.0000 -13.9348 -23.6145 3.7218 -1.6255 7.1250 -0.0000 -0.0000 2.2800 -25.9181 1.0549
-11.1823 17.6022 -0.1586 -50.1611 83.7209 -38.8543 0.0000 0.0000 0.0000 -15.0290 -0.6951 -10.0565 0.3359 3.7244 10.3025 1.4054 1.6091 -23.0327 0.5983 4.9516 13.7705 0.0000 0.0000 0.0000 23.4923 9.3886 -11.8679 -0.4747 -4.4185 12.2570 -0.4703 -5.7308 -16.3184 -0.0001 0.0730 -0.2007 6.4870 1.6042 -12.9362 0.5383 1.2476 -1.4537 -2.8679 0.7894 5.8487 -3.8158 -7.5863 -17.7817 9.0883 52.6971 10.0249 177.3760 62.4561 33.5807 0.0000 -0.0000 0.0000 -84.8973 3.4454 73.8562 127.2409 -54.0494 -91.6071 -0.0000 0.0000 -34.2569 9.0618 46.9210 6.6447 -7.1250 0.0000 -0.0000 -49.7381 71.8318 -34.1071 0.0000 -0.0000 0.0000 87.5550 -11.3639 68.8765 -127.4552 53.9717 -91.7805 0.0000 -0.0000 -13.8072 -23.8091 3.6714 -1.6184 7.1250 -0.0000 -0.0000 2.1326 -25.9672 0.9842
